<svg width="60" height="60" viewBox="0 0 60 60" fill="none" xmlns="http://www.w3.org/2000/svg">
<g clip-path="url(#clip0_4_990)">
<g filter="url(#filter0_d_4_990)">
<path d="M30 60C46.5685 60 60 46.5685 60 30C60 13.4315 46.5685 0 30 0C13.4315 0 0 13.4315 0 30C0 46.5685 13.4315 60 30 60Z" fill="white"/>
</g>
<path fill-rule="evenodd" clip-rule="evenodd" d="M30 40C24.477 40 20 35.523 20 30C20 24.477 24.477 20 30 20C35.523 20 40 24.477 40 30C40 35.523 35.523 40 30 40ZM30 38C34.4183 38 38 34.4183 38 30C38 25.5817 34.4183 22 30 22C25.5817 22 22 25.5817 22 30C22 34.4183 25.5817 38 30 38ZM35 30H31V25H29V32H35V30Z" fill="#101C3D"/>
</g>
<defs>
<filter id="filter0_d_4_990" x="-11" y="-8" width="98" height="98" filterUnits="userSpaceOnUse" color-interpolation-filters="sRGB">
<feFlood flood-opacity="0" result="BackgroundImageFix"/>
<feColorMatrix in="SourceAlpha" type="matrix" values="0 0 0 0 0 0 0 0 0 0 0 0 0 0 0 0 0 0 127 0" result="hardAlpha"/>
<feOffset dx="8" dy="11"/>
<feGaussianBlur stdDeviation="9.5"/>
<feColorMatrix type="matrix" values="0 0 0 0 0.643137 0 0 0 0 0.627451 0 0 0 0 0.627451 0 0 0 0.270588 0"/>
<feBlend mode="normal" in2="BackgroundImageFix" result="effect1_dropShadow_4_990"/>
<feBlend mode="normal" in="SourceGraphic" in2="effect1_dropShadow_4_990" result="shape"/>
</filter>
<clipPath id="clip0_4_990">
<rect width="60" height="60" fill="white"/>
</clipPath>
</defs>
</svg>
