<svg width="60" height="60" viewBox="0 0 60 60" fill="none" xmlns="http://www.w3.org/2000/svg">
<g clip-path="url(#clip0_4_977)">
<g filter="url(#filter0_d_4_977)">
<path d="M30 60C46.5685 60 60 46.5685 60 30C60 13.4315 46.5685 0 30 0C13.4315 0 0 13.4315 0 30C0 46.5685 13.4315 60 30 60Z" fill="white"/>
</g>
<path fill-rule="evenodd" clip-rule="evenodd" d="M30 31C26.685 31 24 28.315 24 25C24 21.685 26.685 19 30 19C33.315 19 36 21.685 36 25C36 28.315 33.315 31 30 31ZM22 40C22 35.5817 25.5817 32 30 32C34.4183 32 38 35.5817 38 40H36C36 36.6863 33.3137 34 30 34C26.6863 34 24 36.6863 24 40H22ZM34 25C34 27.21 32.21 29 30 29C27.79 29 26 27.21 26 25C26 22.79 27.79 21 30 21C32.21 21 34 22.79 34 25Z" fill="#101C3D"/>
</g>
<defs>
<filter id="filter0_d_4_977" x="-11" y="-8" width="98" height="98" filterUnits="userSpaceOnUse" color-interpolation-filters="sRGB">
<feFlood flood-opacity="0" result="BackgroundImageFix"/>
<feColorMatrix in="SourceAlpha" type="matrix" values="0 0 0 0 0 0 0 0 0 0 0 0 0 0 0 0 0 0 127 0" result="hardAlpha"/>
<feOffset dx="8" dy="11"/>
<feGaussianBlur stdDeviation="9.5"/>
<feColorMatrix type="matrix" values="0 0 0 0 0.643137 0 0 0 0 0.627451 0 0 0 0 0.627451 0 0 0 0.270588 0"/>
<feBlend mode="normal" in2="BackgroundImageFix" result="effect1_dropShadow_4_977"/>
<feBlend mode="normal" in="SourceGraphic" in2="effect1_dropShadow_4_977" result="shape"/>
</filter>
<clipPath id="clip0_4_977">
<rect width="60" height="60" fill="white"/>
</clipPath>
</defs>
</svg>
