<svg width="24" height="24" viewBox="0 0 24 24" fill="none" xmlns="http://www.w3.org/2000/svg">
<g clip-path="url(#clip0_4_910)">
<g filter="url(#filter0_d_4_910)">
<path d="M12 24C18.6274 24 24 18.6274 24 12C24 5.37258 18.6274 0 12 0C5.37258 0 0 5.37258 0 12C0 18.6274 5.37258 24 12 24Z" fill="white"/>
</g>
<path fill-rule="evenodd" clip-rule="evenodd" d="M12.0013 17.8337C8.77955 17.8337 6.16797 15.2221 6.16797 12.0003C6.16797 8.77857 8.77955 6.16699 12.0013 6.16699C15.2231 6.16699 17.8346 8.77858 17.8346 12.0003C17.8346 15.2221 15.2231 17.8337 12.0013 17.8337ZM12.0007 16.667C14.578 16.667 16.6673 14.5777 16.6673 12.0003C16.6673 9.42302 14.578 7.33368 12.0007 7.33368C9.42332 7.33368 7.33398 9.42302 7.33398 12.0003C7.33398 14.5777 9.42332 16.667 12.0007 16.667ZM14.918 12.0003H12.5846V9.08366H11.418V13.167H14.918V12.0003Z" fill="#101C3D"/>
</g>
<defs>
<filter id="filter0_d_4_910" x="-9" y="-7" width="44" height="44" filterUnits="userSpaceOnUse" color-interpolation-filters="sRGB">
<feFlood flood-opacity="0" result="BackgroundImageFix"/>
<feColorMatrix in="SourceAlpha" type="matrix" values="0 0 0 0 0 0 0 0 0 0 0 0 0 0 0 0 0 0 127 0" result="hardAlpha"/>
<feOffset dx="1" dy="3"/>
<feGaussianBlur stdDeviation="5"/>
<feColorMatrix type="matrix" values="0 0 0 0 0.368627 0 0 0 0 0.368627 0 0 0 0 0.368627 0 0 0 0.160784 0"/>
<feBlend mode="normal" in2="BackgroundImageFix" result="effect1_dropShadow_4_910"/>
<feBlend mode="normal" in="SourceGraphic" in2="effect1_dropShadow_4_910" result="shape"/>
</filter>
<clipPath id="clip0_4_910">
<rect width="24" height="24" fill="white"/>
</clipPath>
</defs>
</svg>
